<svg width="25" height="25" viewBox="0 0 25 25" fill="none" xmlns="http://www.w3.org/2000/svg">
<path fill-rule="evenodd" clip-rule="evenodd" d="M15.6802 4.42139C16.4349 4.42139 17.2323 4.68514 17.9627 4.97628L18.4973 5.19539C19.7754 5.73101 20.4936 6.85498 21.0506 8.08954C21.9544 10.093 22.5823 12.764 22.7994 14.7949C22.9029 15.7586 22.9283 16.7284 22.7426 17.3806C22.5428 18.0775 21.8631 18.5705 21.2027 18.958L20.8761 19.1437L20.5373 19.3324C20.3614 19.4298 20.1839 19.5258 20.0047 19.6205L19.4752 19.8944L18.7478 20.2565L18.1625 20.5446C18.0429 20.6091 17.9116 20.6489 17.7764 20.6617C17.6411 20.6744 17.5047 20.6599 17.3751 20.6189C17.2456 20.578 17.1256 20.5114 17.0223 20.4232C16.919 20.335 16.8344 20.2269 16.7737 20.1054C16.7129 19.9839 16.6772 19.8514 16.6686 19.7158C16.66 19.5802 16.6788 19.4443 16.7237 19.3161C16.7687 19.1879 16.8389 19.07 16.9303 18.9695C17.0216 18.869 17.1323 18.7878 17.2556 18.7308L18.057 18.3352L17.4686 17.7174C16.0586 18.2956 14.398 18.6233 12.6339 18.6233C10.8698 18.6233 9.20922 18.2966 7.79917 17.7174L7.21081 18.3342L8.01524 18.7298C8.13447 18.7894 8.2408 18.8718 8.32817 18.9724C8.41553 19.0731 8.48222 19.1899 8.52442 19.3164C8.56662 19.4428 8.58351 19.5763 8.57412 19.7092C8.56473 19.8421 8.52925 19.9719 8.46971 20.0912C8.41016 20.2104 8.32771 20.3167 8.22707 20.4041C8.12643 20.4914 8.00956 20.5581 7.88315 20.6003C7.62785 20.6856 7.34914 20.6659 7.10835 20.5456L6.55651 20.2717C6.14871 20.0688 5.7399 19.868 5.33616 19.656L4.39477 19.1437L4.06914 18.958C3.40876 18.5705 2.72808 18.0775 2.52925 17.3806C2.3426 16.7284 2.36897 15.7596 2.47143 14.7938C2.68852 12.764 3.31644 10.093 4.22029 8.08954C4.77721 6.85498 5.49542 5.73101 6.77359 5.19539C7.62165 4.84034 8.64926 4.42139 9.59064 4.42139C10.2023 4.42139 10.6832 4.98439 10.5949 5.58493C11.2701 5.4863 11.9515 5.43647 12.6339 5.43581C13.3349 5.43581 14.0196 5.48653 14.677 5.58594C14.6574 5.44188 14.6687 5.29531 14.71 5.15594C14.7514 5.01656 14.8218 4.88756 14.9168 4.77746C15.0117 4.66736 15.129 4.57869 15.2608 4.51731C15.3925 4.45592 15.5348 4.42323 15.6802 4.42139ZM9.33704 11.0151C8.86621 11.0151 8.41467 11.2022 8.08175 11.5351C7.74883 11.868 7.5618 12.3195 7.5618 12.7904C7.5618 13.2612 7.74883 13.7127 8.08175 14.0456C8.41467 14.3786 8.86621 14.5656 9.33704 14.5656C9.80786 14.5656 10.2594 14.3786 10.5923 14.0456C10.9252 13.7127 11.1123 13.2612 11.1123 12.7904C11.1123 12.3195 10.9252 11.868 10.5923 11.5351C10.2594 11.2022 9.80786 11.0151 9.33704 11.0151ZM15.9308 11.0151C15.46 11.0151 15.0084 11.2022 14.6755 11.5351C14.3426 11.868 14.1555 12.3195 14.1555 12.7904C14.1555 13.2612 14.3426 13.7127 14.6755 14.0456C15.0084 14.3786 15.46 14.5656 15.9308 14.5656C16.4016 14.5656 16.8531 14.3786 17.1861 14.0456C17.519 13.7127 17.706 13.2612 17.706 12.7904C17.706 12.3195 17.519 11.868 17.1861 11.5351C16.8531 11.2022 16.4016 11.0151 15.9308 11.0151Z" fill="white"/>
</svg>
