<svg width="26" height="25" viewBox="0 0 26 25" fill="none" xmlns="http://www.w3.org/2000/svg">
<path d="M12.9802 2.39258C11.648 2.39258 10.3289 2.65497 9.09813 3.16476C7.86738 3.67456 6.74909 4.42177 5.80711 5.36375C3.9047 7.26616 2.83594 9.84638 2.83594 12.5368C2.83594 17.0205 5.74733 20.8246 9.77458 22.1738C10.2818 22.255 10.4441 21.9405 10.4441 21.6666V19.9522C7.63415 20.5609 7.03564 18.5929 7.03564 18.5929C6.56901 17.4162 5.90964 17.1017 5.90964 17.1017C4.98651 16.4727 5.98064 16.493 5.98064 16.493C6.99507 16.564 7.53271 17.5379 7.53271 17.5379C8.41526 19.0798 9.90646 18.6233 10.4847 18.3799C10.576 17.7205 10.8397 17.2741 11.1238 17.0205C8.87175 16.7669 6.50814 15.8945 6.50814 12.0296C6.50814 10.9036 6.89362 10.0007 7.553 9.2805C7.45156 9.0269 7.09651 7.9719 7.65444 6.60243C7.65444 6.60243 8.50656 6.32853 10.4441 7.63714C11.2455 7.41397 12.1179 7.30238 12.9802 7.30238C13.8424 7.30238 14.7148 7.41397 15.5162 7.63714C17.4538 6.32853 18.3059 6.60243 18.3059 6.60243C18.8638 7.9719 18.5088 9.0269 18.4073 9.2805C19.0667 10.0007 19.4522 10.9036 19.4522 12.0296C19.4522 15.9047 17.0784 16.7568 14.8163 17.0104C15.1814 17.3249 15.5162 17.9437 15.5162 18.8871V21.6666C15.5162 21.9405 15.6785 22.2651 16.1959 22.1738C20.2231 20.8145 23.1244 17.0205 23.1244 12.5368C23.1244 11.2046 22.862 9.88552 22.3522 8.65477C21.8424 7.42402 21.0952 6.30573 20.1532 5.36375C19.2112 4.42177 18.0929 3.67456 16.8622 3.16476C15.6314 2.65497 14.3123 2.39258 12.9802 2.39258Z" fill="white"/>
</svg>
