<svg width="25" height="25" viewBox="0 0 25 25" fill="none" xmlns="http://www.w3.org/2000/svg">
<mask id="mask0_8663_6902" style="mask-type:luminance" maskUnits="userSpaceOnUse" x="2" y="2" width="21" height="22">
<path d="M2.49145 2.70166H22.7539V23.0401H2.49145V2.70166Z" fill="white"/>
</mask>
<g mask="url(#mask0_8663_6902)">
<path d="M15.0812 22.7292C16.894 22.2789 18.4531 21.3784 19.7681 20.0651C20.9516 18.8832 21.7876 17.4949 22.276 15.9002C22.8771 13.9491 22.9241 11.9699 22.3417 10.0187C21.4025 6.82002 19.3643 4.58749 16.274 3.33053C16.0021 3.22426 15.7228 3.13656 15.443 3.04874C15.2782 2.99703 15.1133 2.94527 14.9497 2.88965C14.945 2.90372 14.9427 2.91544 14.9403 2.92717C14.938 2.9389 14.9356 2.95062 14.9309 2.96469C16.9785 4.65316 16.7531 7.28905 15.269 8.71486C13.8132 10.1125 11.5402 10.1125 10.0843 8.76176C8.55334 7.33595 8.35606 4.37174 10.4318 2.89903C10.3658 2.91684 10.2998 2.93432 10.2339 2.95178C9.95267 3.02625 9.67254 3.10042 9.39861 3.1992C6.58085 4.22167 4.53321 6.08836 3.35912 8.82743C2.22263 11.4446 2.20387 14.1274 3.29345 16.7726C4.33603 19.3147 6.15815 21.1344 8.67538 22.232C9.18263 22.4571 9.68982 22.626 10.197 22.7573L10.3942 22.7104L8.1964 17.8701L11.296 21.4534L12.6298 11.21L14.0668 21.4534L17.0443 17.8701L14.9215 22.7104L15.053 22.7386C15.0624 22.7291 15.0718 22.7292 15.0812 22.7292Z" fill="white"/>
<path d="M12.4134 7.9366C12.2913 7.08299 11.615 6.39821 10.7509 6.27626C10.5349 6.23875 10.5349 5.91981 10.7509 5.89167C11.6057 5.76972 12.2913 5.09434 12.4134 4.23135C12.4416 4.00622 12.7703 4.00622 12.7985 4.23135C12.9206 5.08496 13.5969 5.76972 14.461 5.89167C14.6864 5.91981 14.6864 6.24812 14.461 6.27626C13.6063 6.39821 12.9206 7.0736 12.7985 7.9366C12.7703 8.16172 12.4416 8.16172 12.4134 7.9366Z" fill="white"/>
</g>
</svg>
