<svg width="25" height="25" viewBox="0 0 25 25" fill="none" xmlns="http://www.w3.org/2000/svg">
<path opacity="0.5" d="M18.4426 22.4213C17.9861 22.4213 17.5426 22.2689 17.1826 21.9882L13.0945 18.8212L10.3536 21.8472C10.2329 21.9802 10.0791 22.0788 9.90791 22.1329C9.7367 22.187 9.55419 22.1947 9.37903 22.1551C9.20387 22.1156 9.04234 22.0303 8.91093 21.908C8.77952 21.7856 8.68294 21.6306 8.63107 21.4587L6.58194 14.6803L2.90364 13.4021C2.50647 13.2639 2.16079 13.008 1.91255 12.6685C1.66431 12.3291 1.52528 11.9221 1.51394 11.5017C1.5026 11.0813 1.61948 10.6674 1.84906 10.315C2.07863 9.96266 2.41002 9.68852 2.79916 9.52906L20.9776 2.18971C21.3244 2.04866 21.703 2.00426 22.0731 2.06122C22.4432 2.11819 22.7909 2.27439 23.0792 2.51322C23.3676 2.75205 23.5858 3.06458 23.7107 3.41756C23.8356 3.77053 23.8625 4.15077 23.7886 4.51781L20.4785 20.7638C20.3805 21.2317 20.1246 21.6516 19.7538 21.9532C19.3829 22.2549 18.9196 22.4198 18.4415 22.4203L18.4426 22.4213Z" fill="white"/>
<path d="M9.6021 22.1797C9.38443 22.1797 9.17253 22.1097 8.99771 21.98C8.82289 21.8503 8.69443 21.6678 8.6313 21.4595L6.43204 14.1962C6.36368 13.97 6.37645 13.727 6.46812 13.5093C6.5598 13.2915 6.72463 13.1125 6.93417 13.0033L17.6536 7.42191C17.8685 7.30935 18.1167 7.27757 18.3531 7.33232C18.5894 7.38707 18.7984 7.52473 18.9419 7.72033C19.0855 7.91593 19.1542 8.15651 19.1356 8.39843C19.117 8.64034 19.0123 8.86758 18.8404 9.0389L11.6543 16.224L10.5952 21.3692C10.5499 21.5901 10.4322 21.7897 10.2608 21.9363C10.0894 22.0829 9.87407 22.1682 9.64877 22.1787L9.6021 22.1797Z" fill="white"/>
</svg>
