<svg width="26" height="25" viewBox="0 0 26 25" fill="none" xmlns="http://www.w3.org/2000/svg">
<path fill-rule="evenodd" clip-rule="evenodd" d="M13.0182 4.42139C13.8856 4.42139 14.7752 4.4437 15.6375 4.48022L16.656 4.52892L17.6308 4.58674L18.5438 4.64862L19.3776 4.71354C20.2827 4.78241 21.1344 5.16844 21.7828 5.80364C22.4312 6.43884 22.8346 7.28246 22.922 8.18591L22.9626 8.61703L23.0387 9.54016C23.1097 10.4968 23.1625 11.5396 23.1625 12.5368C23.1625 13.5339 23.1097 14.5768 23.0387 15.5334L22.9626 16.4565L22.922 16.8876C22.8346 17.7912 22.431 18.635 21.7824 19.2702C21.1338 19.9054 20.2819 20.2913 19.3766 20.36L18.5448 20.4239L17.6318 20.4868L16.656 20.5446L15.6375 20.5933C14.7649 20.6311 13.8916 20.6507 13.0182 20.6521C12.1448 20.6507 11.2716 20.6311 10.399 20.5933L9.38052 20.5446L8.40566 20.4868L7.49269 20.4239L6.65883 20.36C5.75378 20.2911 4.90205 19.9051 4.25368 19.2699C3.60531 18.6347 3.20188 17.7911 3.11444 16.8876L3.07386 16.4565L2.99778 15.5334C2.92052 14.5363 2.87924 13.5368 2.87402 12.5368C2.87402 11.5396 2.92677 10.4968 2.99778 9.54016L3.07386 8.61703L3.11444 8.18591C3.20184 7.28262 3.60513 6.43912 4.2533 5.80395C4.90146 5.16877 5.75294 4.78264 6.65782 4.71354L7.49066 4.64862L8.40364 4.58674L9.37951 4.52892L10.398 4.48022C11.2709 4.44241 12.1445 4.4228 13.0182 4.42139ZM10.9894 10.0768V14.9967C10.9894 15.4654 11.4966 15.7575 11.9024 15.5242L16.1629 13.0643C16.2557 13.0109 16.3327 12.934 16.3862 12.8414C16.4398 12.7488 16.468 12.6437 16.468 12.5368C16.468 12.4298 16.4398 12.3247 16.3862 12.2321C16.3327 12.1395 16.2557 12.0626 16.1629 12.0093L11.9024 9.5503C11.8098 9.49686 11.7048 9.46874 11.598 9.46876C11.4911 9.46878 11.3861 9.49693 11.2936 9.5504C11.201 9.60387 11.1242 9.68076 11.0708 9.77334C11.0174 9.86592 10.9893 9.97093 10.9894 10.0778V10.0768Z" fill="white"/>
</svg>
