<svg width="100" height="100" viewBox="0 0 100 100" fill="none" xmlns="http://www.w3.org/2000/svg">
<g clip-path="url(#clip0_8714_5591)">
<rect width="100" height="100" rx="10" fill="#F7931A"/>
<path d="M90.7433 60.1588C85.1394 82.6911 62.3152 96.3506 39.8412 90.7467C17.3673 85.1428 3.64938 62.3186 9.25328 39.8446C14.8572 17.3123 37.6814 3.65279 60.1554 9.25669C82.6877 14.8022 96.3472 37.6264 90.7433 60.1588Z" fill="#F7931A"/>
<path d="M68.5028 43.9892C69.32 38.3853 65.0587 35.4082 59.2797 33.3651L61.1476 25.7765L56.5361 24.609L54.7265 31.9641C53.5006 31.6723 52.2748 31.3804 51.0489 31.0885L52.9169 23.675L48.3054 22.5076L46.4374 30.0962C45.4451 29.8627 44.4527 29.6292 43.5187 29.3957L37.1559 27.8196L35.9301 32.723C35.9301 32.723 39.3742 33.4819 39.2574 33.5402C41.1254 34.0072 41.4756 35.2331 41.4172 36.2254L39.2574 44.8648C39.3742 44.9232 39.5493 44.9232 39.7244 45.0399C39.5493 44.9815 39.4325 44.9815 39.2574 44.9232L36.222 57.0066C35.9885 57.5903 35.4047 58.4075 34.1205 58.1157C34.1789 58.174 30.7932 57.2984 30.7932 57.2984L28.5166 62.5521L34.5291 64.0698C35.6382 64.3617 36.7473 64.6536 37.7981 64.9454L35.8717 72.5924L40.4833 73.7599L42.3512 66.1713C43.6355 66.5215 44.8029 66.8134 46.0288 67.1053L44.1608 74.6355L48.7724 75.803L50.6987 68.156C58.5792 69.6153 64.4749 69.0316 66.985 61.91C68.9697 56.1893 66.8683 52.862 62.7237 50.7022C65.6424 50.0601 67.919 48.0754 68.5028 43.9892ZM57.9954 58.7578C56.5945 64.4784 46.9044 61.3846 43.8106 60.6258L46.3207 50.4687C49.4728 51.2276 59.4548 52.8036 57.9954 58.7578ZM59.3964 43.9308C58.1122 49.1261 50.0566 46.4993 47.4881 45.8571L49.7647 36.6341C52.3915 37.2762 60.7974 38.502 59.3964 43.9308Z" fill="white"/>
</g>
<defs>
<clipPath id="clip0_8714_5591">
<rect width="100" height="100" rx="10" fill="white"/>
</clipPath>
</defs>
</svg>
