<svg width="36" height="36" viewBox="0 0 36 36" fill="none" xmlns="http://www.w3.org/2000/svg">
<path opacity="0.25" d="M30.0022 11.0584L18.0001 18L5.99805 11.0584C6.24546 10.6326 6.59665 10.2764 7.01888 10.0229L16.5418 4.52502C17.446 4.01461 18.5543 4.01461 19.4585 4.52502L28.9814 10.0229C29.4043 10.2752 29.7558 10.6325 30.0022 11.0584Z" fill="#00594C"/>
<path opacity="0.5" d="M17.9998 18V31.8542C17.5401 31.853 17.0865 31.7483 16.6728 31.5479L7.06234 25.9917C6.61939 25.7359 6.25147 25.3682 5.99551 24.9254C5.73955 24.4826 5.60453 23.9802 5.604 23.4688V12.5313C5.60641 12.0146 5.74203 11.5073 5.99775 11.0583L17.9998 18Z" fill="#00594C"/>
<path d="M30.3958 12.5313V23.4688C30.3953 23.9802 30.2603 24.4826 30.0043 24.9254C29.7484 25.3682 29.3805 25.7359 28.9375 25.9917L19.2833 31.5625C18.8823 31.7521 18.4433 31.8513 18 31.8542V18L30.0021 11.0583C30.2573 11.5075 30.3929 12.015 30.3958 12.5313Z" fill="#00594C"/>
</svg>
