<svg width="36" height="36" viewBox="0 0 36 36" fill="none" xmlns="http://www.w3.org/2000/svg">
<path opacity="0.5" d="M7.79199 12.1667H28.2087V23.8334C28.2087 26.5838 28.2087 27.9575 27.3541 28.8121C26.4995 29.6667 25.1257 29.6667 22.3753 29.6667H13.6253C10.8749 29.6667 9.50116 29.6667 8.64658 28.8121C7.79199 27.9575 7.79199 26.5838 7.79199 23.8334V12.1667Z" fill="#FEB3D2"/>
<path d="M14.3545 14.3542L11.6712 12.5663C10.6139 11.8604 9.97949 10.6734 9.97949 9.4046C9.97949 7.30606 11.7047 5.60419 13.8062 5.60419C14.7551 5.60425 15.6709 5.95292 16.3796 6.58394C17.0884 7.21495 17.5406 8.08434 17.6503 9.0269L18.0003 12.1667L18.3503 9.0269C18.4601 8.08434 18.9123 7.21495 19.621 6.58394C20.3297 5.95292 21.2456 5.60425 22.1945 5.60419C24.2945 5.60419 26.0197 7.30606 26.0197 9.4046C26.0197 10.6734 25.3853 11.8604 24.328 12.5663L21.6462 14.3542" stroke="#FEB3D2" stroke-linecap="round"/>
<path d="M28.2085 12.1667H7.79183C6.98641 12.1667 6.3335 12.8196 6.3335 13.625V15.0834C6.3335 15.8888 6.98641 16.5417 7.79183 16.5417H28.2085C29.0139 16.5417 29.6668 15.8888 29.6668 15.0834V13.625C29.6668 12.8196 29.0139 12.1667 28.2085 12.1667Z" fill="#FEB3D2"/>
<path d="M18 16.5417V22.375" stroke="#FEB3D2" stroke-linecap="round"/>
</svg>
