<svg width="586" height="616" viewBox="0 0 586 616" fill="none" xmlns="http://www.w3.org/2000/svg">
<path d="M595.688 625.974L111.229 628.481L0.239258 629.053L49.4649 530.598L100.228 485.988L169.452 464.452L201.498 420.873H347.13L404.185 468.42L489.546 496.11L539.417 542.905L540.601 544.661L594.183 623.759L595.688 625.974Z" fill="#00594C"/>
<path opacity="0.1" d="M594.183 623.759L557.107 619.82L469.933 562.396L360.975 545.984L327.132 499.063L322.256 464.959L278.012 453.789L260.89 420.873H347.13L404.185 468.42L489.546 496.11L539.417 542.905L540.601 544.661L594.183 623.759Z" fill="#DEE5F8"/>
<path d="M203.552 493.68L131.763 535.728L111.229 628.481L0.239258 629.053L49.4649 530.598L100.228 485.988L169.452 464.452L201.498 420.873L203.552 493.68Z" fill="#00443A"/>
<path d="M318.899 404.556L319.034 392.585L301.693 393.812L301.192 403.705C306.717 404.851 313.002 405.143 318.899 404.556Z" fill="#F9B384"/>
<path d="M337.668 420.792C332.966 413.092 326.539 410.524 318.861 409.551L318.896 404.556C313.003 405.144 306.714 404.852 301.19 403.706L300.326 420.796H337.668V420.792Z" fill="#102048"/>
<path d="M232.824 405.722L231.239 409.346C223.564 410.319 216.694 414.453 210.39 420.793H246.775L250.647 405.767C244.435 406.82 238.509 406.746 232.824 405.722Z" fill="#102048"/>
<path d="M250.647 405.768L253.726 393.814L238.395 392.995L232.825 405.723C238.51 406.747 244.436 406.821 250.647 405.768Z" fill="#F9B384"/>
<path d="M326.903 218.638C336.033 278.053 333.445 337.197 320.772 396.884H298.967C301.57 358.143 303.557 312.092 297.467 281.596L255.869 397.395H232.054L271.299 232.538L284.791 206.1L316.407 202.283L326.903 218.638Z" fill="#102048"/>
<path d="M355.932 91.8989L361.79 74.3208L377.654 78.0252C378.848 83.9123 371.722 92.8426 366.425 99.5291L355.932 91.8989Z" fill="#F9B384"/>
<path d="M302.437 154.646L284.172 154.858L282.355 130.934L282.144 128.073L300.492 127.91L301.147 136.984L302.437 154.646Z" fill="#F9B384"/>
<path d="M301.044 135.337C295.064 139.603 287.247 136.945 282.355 130.933L282.144 128.069L300.492 127.906L301.044 135.337Z" fill="#102048"/>
<path d="M296.779 133.334C287.509 135.453 277.16 129.508 273.077 121.611L272.524 107.436L277.712 100.079L299.784 101.979C299.681 102.005 299.694 102.313 299.784 102.839C300.041 104.213 300.888 107.141 301.671 110.672C303.597 119.262 305.138 131.421 296.779 133.334Z" fill="#F9B384"/>
<path d="M281.249 145.589C281.249 145.589 294.876 156.49 306.734 140.957L329.22 215.635C315.452 225.361 298.047 228.722 277.163 225.99L281.249 145.589Z" fill="white"/>
<g opacity="0.3">
<path d="M284.174 154.856C286.061 155.537 287.991 155.951 289.917 156.163C291.843 156.358 293.781 156.313 295.653 155.931C297.521 155.566 299.37 154.978 301.065 154.041C301.957 153.649 302.731 153.052 303.582 152.551C304.416 152.025 305.145 151.357 305.992 150.795C305.366 151.572 304.715 152.352 304.002 153.071C303.225 153.717 302.5 154.458 301.601 154.962C299.916 156.147 297.922 156.859 295.903 157.276C291.83 158.056 287.48 157.145 284.174 154.856Z" fill="#00594C"/>
</g>
<path d="M355.315 88.626C342.986 109.446 330.961 127.74 320.092 136.458C318.477 137.752 316.423 138.33 314.356 138.224C310.269 138.012 306.048 138.513 301.349 139.627C302.334 176.985 305.878 211.589 318.586 232.804C326.242 230.596 335.529 227.048 340.662 222.718C336.479 208.523 331.532 188.169 327.851 170.388L368.595 97.6172L355.315 88.626Z" fill="#00594C"/>
<path d="M301.672 110.67C287.641 118.656 275.979 104.105 275.979 104.105L299.784 102.837C300.041 104.211 300.888 107.139 301.672 110.67Z" fill="#E28B6D"/>
<path d="M276.211 118.881C277.931 116.657 278.718 112.917 277.164 105.39C282.275 111.171 289.873 112.522 301.012 107.569C301.012 107.569 308.257 104.735 306.6 97.3485C305.101 90.6717 299.512 87.1278 295.153 92.5785C285.26 89.6894 275.53 89.1726 271.168 98.1671C271.168 98.1671 257.269 105.39 269.123 117.109L276.211 118.881Z" fill="#102048"/>
<path d="M255.94 273.172L253.549 272.639L256.046 261.446L239.53 257.43L237.341 267.645L234.943 267.131L237.659 254.448L258.964 259.632L255.94 273.172Z" fill="#00594C"/>
<path d="M246.228 237.883C245.82 238.451 244.321 249.979 244.321 249.979C244.321 249.979 237.645 256.238 242.142 260.081C246.639 263.923 252.09 263.779 254.68 260.934C255.582 258.151 255.653 254.896 254.545 250.974L257.136 238.169L246.228 237.883Z" fill="#F9B384"/>
<path d="M268.162 272.403L261.572 300.318L259.039 311.097L216.243 295.021L221.883 271.489L224.567 260.27L268.162 272.403Z" fill="#ACBFEE"/>
<path d="M388.09 86.796L365.366 100.57L364.349 92.5836L381.477 82.1992L388.09 86.796Z" fill="#6F3428"/>
<path d="M375.827 85.6234L370.001 89.1544L356.169 69.493L364.791 64.2671L375.827 85.6234Z" fill="#BB9132"/>
<path d="M365.957 63.571L355.011 70.2061C352.561 71.6923 349.39 71.1563 347.563 68.9478L329.247 46.7986L357.116 29.9043L368.284 56.387C369.398 59.0256 368.406 62.0848 365.957 63.571Z" fill="#FBC343"/>
<path d="M364.617 49.6006L363.108 48.9714C367.313 38.847 366.582 30.6197 363.49 28.8061C361.882 27.8623 359.658 28.9762 357.382 31.8588L356.098 30.8444C360.126 25.7405 363.189 26.7324 364.319 27.3936C368.081 29.6053 369.22 38.5164 364.617 49.6006Z" fill="#FBC343"/>
<path d="M342.811 62.8375C330.854 61.7942 323.48 56.6614 323.265 52.3022C323.201 50.9925 323.737 47.821 330.125 46.6108L330.43 48.2158C326.822 48.8996 324.806 50.3601 324.899 52.2187C325.079 55.7979 332.032 60.2502 342.956 61.2068L342.811 62.8375Z" fill="#FBC343"/>
<path opacity="0.6" d="M352.962 44.2504C352.002 42.5876 352.05 40.7644 353.071 40.1737C354.092 39.5863 355.697 40.4562 356.656 42.1158C357.616 43.7786 357.568 45.6019 356.547 46.1925C355.527 46.7831 353.922 45.9132 352.962 44.2504Z" fill="white"/>
<path d="M377.64 77.6062C378.038 80.4407 376.247 82.9702 372.468 82.9702C370.106 82.9702 366.8 79.7313 366.106 75.8857C365.532 72.7142 366.751 70.6373 368.989 69.7128C371.287 68.7658 376.889 72.2615 377.64 77.6062Z" fill="#F9B384"/>
<path d="M305.345 26.0682L304.573 28.5176L324.471 34.7866L325.243 32.3372L305.345 26.0682Z" fill="#FBC343"/>
<path d="M347.941 -0.000150775L344.313 20.5415L346.842 20.9881L350.47 0.446427L347.941 -0.000150775Z" fill="#FBC343"/>
<path d="M322.896 5.43492L320.733 6.81934L331.978 24.3865L334.141 23.0021L322.896 5.43492Z" fill="#FBC343"/>
<path d="M269.803 192.199L266.532 241.531C284.794 240.713 297.056 234.716 297.056 234.716C298.642 205.274 294.86 172.326 283.208 142.698C253.608 153.698 245.262 190.142 240.871 244.295L258.208 246.304L269.803 192.199Z" fill="#00594C"/>
<path d="M276.482 123.784C270.913 125.771 267.353 125.322 267.057 120C266.887 116.947 270.033 114.514 272.807 115.804C274.01 116.363 275.134 117.425 276.206 118.879L276.482 123.784Z" fill="#F9B384"/>
<path opacity="0.15" d="M261.572 300.317L259.036 311.093L216.243 295.02L221.886 271.487C227.151 282.379 238.286 295.887 261.572 300.317Z" fill="#102048"/>
<path d="M324.147 153.558C324.882 155.898 325.524 158.261 326.144 160.63C326.779 162.992 327.341 165.374 327.9 167.756C328.449 170.141 328.972 172.529 329.437 174.934C329.9 177.338 330.352 179.742 330.689 182.175L330.066 182.317C329.312 179.98 328.673 177.617 328.047 175.251C327.421 172.886 326.856 170.504 326.314 168.119C325.781 165.731 325.251 163.342 324.799 160.938C324.327 158.537 323.878 156.129 323.524 153.699L324.147 153.558Z" fill="#102048"/>
<path d="M270.669 175.592C270.753 177.964 270.737 180.33 270.698 182.695C270.679 185.061 270.58 187.424 270.48 189.786C270.371 192.149 270.236 194.508 270.04 196.868C269.841 199.227 269.636 201.583 269.305 203.936L268.666 203.904C268.564 201.532 268.583 199.166 268.612 196.8C268.644 194.434 268.737 192.072 268.853 189.709C268.981 187.347 269.109 184.987 269.318 182.628C269.507 180.269 269.719 177.913 270.031 175.56L270.669 175.592Z" fill="#102048"/>
<path d="M293.484 291.844C294.219 289.145 295.044 286.477 295.895 283.819C296.726 281.155 297.664 278.526 298.54 275.875C299.468 273.242 300.415 270.617 301.391 268.004C302.392 265.397 303.4 262.794 304.524 260.229L305.127 260.441C304.411 263.147 303.58 265.811 302.739 268.476C301.875 271.13 300.983 273.775 300.071 276.411C299.112 279.03 298.21 281.672 297.198 284.275C296.206 286.885 295.192 289.488 294.088 292.056L293.484 291.844Z" fill="#708CD5"/>
<path d="M273.144 120.835C272.859 120.434 272.592 120.023 272.31 119.641C272.021 119.269 271.754 118.884 271.427 118.624C271.109 118.338 270.82 118.203 270.519 118.283C270.182 118.325 269.844 118.688 269.469 118.99L269.154 118.791C269.363 118.315 269.607 117.783 270.242 117.497C270.901 117.198 271.661 117.532 272.053 117.911C272.868 118.72 273.305 119.673 273.494 120.701L273.144 120.835Z" fill="#102048"/>
<path d="M365.878 78.4571C366.475 76.2036 366.167 74.1653 365.194 73.9085C364.221 73.6517 362.722 74.7046 362.125 76.9612C361.528 79.2146 360.844 82.4632 362.382 83.1886C365.104 84.4726 365.281 80.7105 365.878 78.4571Z" fill="#F9B384"/>
</svg>
