<svg width="36" height="36" viewBox="0 0 36 36" fill="none" xmlns="http://www.w3.org/2000/svg">
<path opacity="0.5" d="M13.6252 10.7083C13.6252 8.22913 15.521 6.33329 18.0002 6.33329C20.4793 6.33329 22.3752 8.22913 22.3752 10.7083V13.625H25.2918V10.7083C25.2918 6.62496 22.0835 3.41663 18.0002 3.41663C13.9168 3.41663 10.7085 6.62496 10.7085 10.7083V13.625H13.6252V10.7083ZM20.1877 21.6458C20.1877 20.4791 19.1668 19.4583 18.0002 19.4583C16.8335 19.4583 15.8127 20.4791 15.8127 21.6458C15.8127 22.2291 16.1043 22.8125 16.5418 23.25V25.2916C16.5418 26.1666 17.1252 26.75 18.0002 26.75C18.8752 26.75 19.4585 26.1666 19.4585 25.2916V23.25C19.896 22.8125 20.1877 22.2291 20.1877 21.6458Z" fill="#34AA6D"/>
<path d="M25.2918 13.625H10.7085C8.22933 13.625 6.3335 15.5208 6.3335 18V28.2083C6.3335 30.6875 8.22933 32.5833 10.7085 32.5833H25.2918C27.771 32.5833 29.6668 30.6875 29.6668 28.2083V18C29.6668 15.5208 27.771 13.625 25.2918 13.625ZM19.4585 23.25V25.2917C19.4585 26.1667 18.8752 26.75 18.0002 26.75C17.1252 26.75 16.5418 26.1667 16.5418 25.2917V23.25C16.1043 22.8125 15.8127 22.2292 15.8127 21.6458C15.8127 20.4792 16.8335 19.4583 18.0002 19.4583C19.1668 19.4583 20.1877 20.4792 20.1877 21.6458C20.1877 22.2292 19.896 22.8125 19.4585 23.25Z" fill="#34AA6D"/>
</svg>
