<svg width="36" height="36" viewBox="0 0 36 36" fill="none" xmlns="http://www.w3.org/2000/svg">
<path d="M23.1043 11.4375C23.1043 12.1078 22.9723 12.7716 22.7158 13.3908C22.4593 14.0101 22.0833 14.5728 21.6094 15.0467C21.1354 15.5207 20.5727 15.8967 19.9534 16.1532C19.3342 16.4097 18.6705 16.5417 18.0002 16.5417C17.3299 16.5417 16.6661 16.4097 16.0469 16.1532C15.4276 15.8967 14.8649 15.5207 14.391 15.0467C13.917 14.5728 13.541 14.0101 13.2845 13.3908C13.028 12.7716 12.896 12.1078 12.896 11.4375C12.896 10.0838 13.4338 8.78557 14.391 7.82835C15.3482 6.87113 16.6465 6.33337 18.0002 6.33337C19.3539 6.33337 20.6521 6.87113 21.6094 7.82835C22.5666 8.78557 23.1043 10.0838 23.1043 11.4375Z" fill="#4A90E2"/>
<path opacity="0.5" d="M28.9375 11.4375C28.9375 12.4044 28.5534 13.3317 27.8697 14.0155C27.1859 14.6992 26.2586 15.0833 25.2917 15.0833C24.3247 15.0833 23.3974 14.6992 22.7137 14.0155C22.0299 13.3317 21.6458 12.4044 21.6458 11.4375C21.6458 10.4705 22.0299 9.54319 22.7137 8.85947C23.3974 8.17574 24.3247 7.79163 25.2917 7.79163C26.2586 7.79163 27.1859 8.17574 27.8697 8.85947C28.5534 9.54319 28.9375 10.4705 28.9375 11.4375ZM7.0625 11.4375C7.0625 12.4044 7.44661 13.3317 8.13034 14.0155C8.81407 14.6992 9.7414 15.0833 10.7083 15.0833C11.6753 15.0833 12.6026 14.6992 13.2863 14.0155C13.9701 13.3317 14.3542 12.4044 14.3542 11.4375C14.3542 10.4705 13.9701 9.54319 13.2863 8.85947C12.6026 8.17574 11.6753 7.79163 10.7083 7.79163C9.7414 7.79163 8.81407 8.17574 8.13034 8.85947C7.44661 9.54319 7.0625 10.4705 7.0625 11.4375Z" fill="#4A90E2"/>
<path d="M26.75 24.5625C26.75 27.3815 22.8329 29.6667 18 29.6667C13.1671 29.6667 9.25 27.3815 9.25 24.5625C9.25 21.7436 13.1671 19.4584 18 19.4584C22.8329 19.4584 26.75 21.7436 26.75 24.5625Z" fill="#4A90E2"/>
<path opacity="0.5" d="M32.5832 24.5625C32.5832 26.575 29.9728 28.2083 26.7498 28.2083C23.5269 28.2083 20.9165 26.575 20.9165 24.5625C20.9165 22.55 23.5269 20.9166 26.7498 20.9166C29.9728 20.9166 32.5832 22.55 32.5832 24.5625ZM3.4165 24.5625C3.4165 26.575 6.02692 28.2083 9.24984 28.2083C12.4728 28.2083 15.0832 26.575 15.0832 24.5625C15.0832 22.55 12.4728 20.9166 9.24984 20.9166C6.02692 20.9166 3.4165 22.55 3.4165 24.5625Z" fill="#4A90E2"/>
</svg>
